HIERARCHY
ROOT Hips
{
	OFFSET 0.000000 0.000000 0.000000
	CHANNELS 6 Xposition Yposition Zposition Xrotation Yrotation Zrotation
	JOINT LeftUpLeg_virtual
	{
		OFFSET 0.000000 0.000000 0.000000
		CHANNELS 3 Xrotation Yrotation Zrotation
		JOINT LeftUpLeg
		{
			OFFSET 10.205400 -3.823500 0.155100
			CHANNELS 3 Xrotation Yrotation Zrotation
			JOINT LeftLeg
			{
				OFFSET 0.708757 -12.982077 0.567790
				CHANNELS 3 Xrotation Yrotation Zrotation
				JOINT LeftFoot
				{
					OFFSET -0.708756 -10.717838 -2.184338
					CHANNELS 3 Xrotation Yrotation Zrotation
					JOINT LeftToeBase
					{
						OFFSET 0.108149 -7.191104 7.560241
						CHANNELS 3 Xrotation Yrotation Zrotation
						JOINT LeftToe_End
						{
							OFFSET 0.070230 0.081724 4.490308
							CHANNELS 3 Xrotation Yrotation Zrotation
							End Site
							{
								OFFSET 0 0 0
							}
						}
					}
				}
			}
		}
	}
	JOINT RightUpLeg_virtual
	{
		OFFSET 0.000000 0.000000 0.000000
		CHANNELS 3 Xrotation Yrotation Zrotation
		JOINT RightUpLeg
		{
			OFFSET -10.205400 -3.823500 0.005500
			CHANNELS 3 Xrotation Yrotation Zrotation
			JOINT RightLeg
			{
				OFFSET -0.708756 -12.982134 0.610632
				CHANNELS 3 Xrotation Yrotation Zrotation
				JOINT RightFoot
				{
					OFFSET 0.708754 -10.717769 -1.945823
					CHANNELS 3 Xrotation Yrotation Zrotation
					JOINT RightToeBase
					{
						OFFSET -0.108140 -7.191069 7.372968
						CHANNELS 3 Xrotation Yrotation Zrotation
						JOINT RightToe_End
						{
							OFFSET -0.070227 0.081735 4.479403
							CHANNELS 3 Xrotation Yrotation Zrotation
							End Site
							{
								OFFSET 0 0 0
							}
						}
					}
				}
			}
		}
	}
	JOINT Spine_virtual
	{
		OFFSET 0.000000 0.000000 0.000000
		CHANNELS 3 Xrotation Yrotation Zrotation
		JOINT Spine
		{
			OFFSET 0.000000 6.876099 0.125700
			CHANNELS 3 Xrotation Yrotation Zrotation
			JOINT Spine1
			{
				OFFSET 0.000000 5.730043 0.104720
				CHANNELS 3 Xrotation Yrotation Zrotation
				JOINT Spine1_split
				{
					OFFSET 0.000000 5.730043 0.104720
					CHANNELS 3 Xrotation Yrotation Zrotation
					JOINT Spine2
					{
						OFFSET 0.000000 5.730043 0.104720
						CHANNELS 3 Xrotation Yrotation Zrotation
						JOINT Neck_virtual
						{
							OFFSET 0.000000 0.000000 0.000000
							CHANNELS 3 Xrotation Yrotation Zrotation
							JOINT Neck
							{
								OFFSET 0.000000 10.314075 0.188496
								CHANNELS 3 Xrotation Yrotation Zrotation
								JOINT Head
								{
									OFFSET 0.000000 7.643700 -2.377400
									CHANNELS 3 Xrotation Yrotation Zrotation
									JOINT HeadTop_End
									{
										OFFSET 0.000000 43.788605 -13.619600
										CHANNELS 3 Xrotation Yrotation Zrotation
										End Site
										{
											OFFSET 0 0 0
										}
									}
								}
							}
						}
						JOINT LeftShoulder_virtual
						{
							OFFSET 0.000000 0.000000 0.000000
							CHANNELS 3 Xrotation Yrotation Zrotation
							JOINT LeftShoulder
							{
								OFFSET 2.196100 4.412489 0.087492
								CHANNELS 3 Xrotation Yrotation Zrotation
								JOINT LeftShoulder_split
								{
									OFFSET 2.196100 4.412489 0.087492
									CHANNELS 3 Xrotation Yrotation Zrotation
									JOINT LeftArm
									{
										OFFSET 8.771219 -2.981674 -0.026999
										CHANNELS 3 Xrotation Yrotation Zrotation
										JOINT LeftForeArm
										{
											OFFSET 8.512804 0.000000 -0.000000
											CHANNELS 3 Xrotation Yrotation Zrotation
											JOINT LeftHand
											{
												OFFSET 18.484802 0.000000 -0.000000
												CHANNELS 3 Xrotation Yrotation Zrotation
												End Site
												{
													OFFSET 0 0 0
												}
											}
										}
									}
								}
							}
						}
						JOINT RightShoulder_virtual
						{
							OFFSET 0.000000 0.000000 0.000000
							CHANNELS 3 Xrotation Yrotation Zrotation
							JOINT RightShoulder
							{
								OFFSET -2.196100 4.412496 0.070690
								CHANNELS 3 Xrotation Yrotation Zrotation
								JOINT RightShoulder_split
								{
									OFFSET -2.196100 4.412496 0.070690
									CHANNELS 3 Xrotation Yrotation Zrotation
									JOINT RightArm
									{
										OFFSET -8.771282 -2.981682 -0.094208
										CHANNELS 3 Xrotation Yrotation Zrotation
										JOINT RightForeArm
										{
											OFFSET -8.494598 0.000000 0.000000
											CHANNELS 3 Xrotation Yrotation Zrotation
											JOINT RightHand
											{
												OFFSET -18.483803 0.000000 0.000001
												CHANNELS 3 Xrotation Yrotation Zrotation
												End Site
												{
													OFFSET 0 0 0
												}
											}
										}
									}
								}
							}
						}
					}
				}
			}
		}
	}
}
MOTION
Frames: 9
Frame Time: 0.03333333
1.036227 34.635597 -1.489391 0.000000 0.000000 0.000000 -0.823168 -14.807382 -0.414696 -18.321962 21.348282 18.247369 31.504579 8.925039 -0.595951 0.124787 3.031706 -5.882956 -5.445121 0.176568 0.340397 0.000000 0.000000 0.000000 -0.206041 -13.894609 -0.878480 -1.322201 -3.595489 2.584218 19.229995 4.347827 0.787285 -12.750747 -0.222478 -2.427470 -0.334084 -2.005323 1.356654 0.000000 0.000000 0.000000 -1.998282 -18.315706 -1.679125 2.935219 -0.749931 -0.172864 0.721428 -0.264922 3.176454 -0.250581 1.655194 -0.173082 0.000000 0.000000 0.000000 0.826932 -1.621480 2.713377 4.166611 -6.979018 -2.235504 5.714623 21.179933 -9.619214 0.000000 0.000000 0.000000 0.188267 -1.345397 2.909149 4.678242 6.679393 2.330801 5.631905 7.078418 -2.661443 -6.448403 -40.770680 -68.336425 -13.089808 -26.316760 -2.815126 0.000000 0.000000 0.000000 0.484017 -0.975833 3.341543 -1.719268 -1.603604 2.735841 -1.518623 3.979896 1.357227 7.070672 7.791269 78.298850 -6.203275 27.915864 5.147346 0.000000 0.000000 0.000000 
1.212904 34.273746 -1.689798 0.000000 0.000000 0.000000 -0.709226 -14.828366 -0.744073 -18.670740 22.100494 18.870336 31.797942 8.169730 -1.159509 -1.245991 2.903789 -5.488083 -4.252330 0.131546 0.156193 0.000000 0.000000 0.000000 -0.090286 -14.238424 -1.087726 -3.133827 -3.596335 2.254718 17.463021 4.500075 1.513929 -10.731568 0.728634 -1.511179 -3.264983 -2.062293 0.916496 0.000000 0.000000 0.000000 -2.155475 -19.339209 -2.168084 3.942083 -1.026123 -0.096718 1.111470 -0.456365 3.149702 0.514267 1.205411 0.022637 0.000000 0.000000 0.000000 1.418834 -1.624499 2.706275 3.329243 -6.541236 -1.929224 4.632036 21.125910 -9.495102 0.000000 0.000000 0.000000 0.537586 -1.342114 2.837825 4.938261 6.670303 2.913491 5.877515 5.985276 -0.639229 -4.466459 -40.787393 -68.558516 -11.144010 -24.978386 -2.487356 0.000000 0.000000 0.000000 0.868444 -1.046696 3.336531 -1.520372 -1.090173 2.575148 -1.437477 6.081921 0.368706 6.282666 8.772346 77.300987 -4.784915 26.121582 4.103468 0.000000 0.000000 0.000000 
1.355283 33.843517 -1.792360 0.000000 0.000000 0.000000 -0.837433 -16.123942 -1.765019 -20.263703 24.683713 21.320893 32.661811 6.491507 -1.985589 -3.617940 2.845299 -6.767359 -4.029543 0.104536 -0.037446 0.000000 0.000000 0.000000 -0.389413 -16.134853 -2.031948 -5.992664 -4.310750 1.602301 16.703380 5.139197 2.782957 -6.855591 2.918690 0.653861 -5.038783 -1.616704 -0.460428 0.000000 0.000000 0.000000 -2.462935 -21.232517 -3.064294 5.537747 -1.552928 0.100987 1.717512 -0.773781 2.812489 0.757414 1.069975 -0.142338 0.000000 0.000000 0.000000 2.170103 -1.734666 2.436975 1.947222 -5.715247 -1.941668 2.024198 22.249399 -9.492425 0.000000 0.000000 0.000000 1.287388 -1.421295 2.339208 5.635549 6.169846 4.031594 5.814701 5.695414 1.724690 1.159413 -42.315293 -66.672632 -11.888966 -29.647560 -4.207496 0.000000 0.000000 0.000000 1.773329 -1.200808 2.956954 -1.166132 -0.418984 2.240520 -0.788206 6.726059 -0.680062 4.179641 11.650555 75.829662 -2.841364 24.831848 3.064548 0.000000 0.000000 0.000000 
1.461949 33.509365 -1.814716 0.000000 0.000000 0.000000 -1.090213 -18.825863 -3.149945 -23.124205 28.792222 25.549532 33.646349 4.396889 -3.023428 -5.812374 2.965419 -9.410500 -5.303160 0.087298 0.126380 0.000000 0.000000 0.000000 -0.769266 -19.284986 -3.487240 -9.222955 -5.495826 0.653725 17.081757 6.024968 4.069587 -2.892244 5.825424 3.577656 -5.131525 -0.803185 -2.234800 0.000000 0.000000 0.000000 -2.551169 -23.751006 -4.215582 7.273532 -2.221538 0.345370 2.453894 -1.166673 2.276757 0.544299 1.121133 -0.440662 0.000000 0.000000 0.000000 3.070441 -1.951860 1.999925 0.297558 -4.541437 -2.194159 -1.455244 24.141538 -9.417748 0.000000 0.000000 0.000000 2.246022 -1.585648 1.590762 6.666319 5.733427 5.933229 5.545178 5.303929 3.412436 10.651870 -44.374045 -62.654862 -16.401444 -41.172654 -9.115609 0.000000 0.000000 0.000000 2.983717 -1.439015 2.336660 -0.712595 0.204594 1.883410 0.181536 5.651200 -1.595350 1.211130 15.133247 74.179789 -0.941176 25.594017 2.338612 0.000000 0.000000 0.000000 
1.525599 33.271461 -1.683847 0.000000 0.000000 0.000000 -1.380485 -22.686663 -4.616593 -26.993630 33.711860 31.079953 34.949388 2.460723 -4.023633 -7.158443 3.762925 -12.057223 -6.485031 0.020474 0.386858 0.000000 0.000000 0.000000 -1.147484 -23.230998 -5.116658 -11.782977 -6.836423 -0.496205 18.346532 6.497185 4.690965 -0.755016 7.942943 5.780521 -4.475675 -0.036497 -3.522469 0.000000 0.000000 0.000000 -2.314483 -26.818437 -5.400229 8.749617 -2.890825 0.543310 3.244619 -1.604956 1.681122 0.191511 1.564202 -0.778190 0.000000 0.000000 0.000000 3.965955 -2.222962 1.534319 -1.091895 -3.195218 -2.386554 -4.923190 26.510206 -9.223662 0.000000 0.000000 0.000000 3.237360 -1.775666 0.819006 7.979896 5.737993 8.438910 4.942397 4.025241 4.360284 23.561759 -45.526353 -57.359505 -29.182116 -57.806097 -22.103080 0.000000 0.000000 0.000000 4.288291 -1.719137 1.647096 -0.145886 0.755337 1.571666 1.131403 3.563035 -2.440461 -1.871598 17.838994 72.447489 0.469289 29.872553 2.047844 0.000000 0.000000 0.000000 
1.549280 33.077744 -1.565304 0.000000 0.000000 0.000000 -1.493103 -27.301197 -5.723184 -30.910492 38.747755 36.425525 36.270678 1.552793 -4.742201 -9.121274 5.781443 -12.849566 -5.684254 -0.100009 0.379006 0.000000 0.000000 0.000000 -1.106431 -27.481288 -6.304682 -13.065925 -8.073396 -2.125570 19.957746 6.053203 4.216261 -1.163046 8.125600 6.485275 -3.832401 0.396987 -3.570075 0.000000 0.000000 0.000000 -1.945805 -30.282375 -6.387993 9.642896 -3.422735 0.631112 3.994229 -2.047380 1.168050 0.428030 2.104926 -0.807283 0.000000 0.000000 0.000000 4.646137 -2.504680 1.131047 -2.066195 -1.941065 -2.315099 -7.748894 28.794148 -8.863244 0.000000 0.000000 0.000000 4.068932 -1.927736 0.250488 9.438774 6.331726 11.264889 3.608627 1.646985 4.461500 38.079117 -45.354519 -52.993771 -67.797352 -71.107187 -60.924618 0.000000 0.000000 0.000000 5.491700 -1.966582 1.058934 0.496849 1.288178 1.448212 1.909512 1.384010 -3.198685 -3.919501 18.574875 70.316436 1.156895 38.063422 2.172391 0.000000 0.000000 0.000000 
1.597311 32.857479 -1.599638 0.000000 0.000000 0.000000 -1.615914 -32.275157 -6.318291 -33.357046 43.405685 40.308471 36.960582 1.344895 -4.900639 -12.968495 8.641647 -11.928945 -3.727942 -0.214747 0.321529 0.000000 0.000000 0.000000 -0.994834 -31.928812 -6.809661 -13.551786 -9.149601 -4.585188 22.547747 4.644560 2.963304 -3.192176 6.241306 5.389828 -3.174715 0.342183 -1.829234 0.000000 0.000000 0.000000 -1.525870 -33.830907 -6.978766 9.919042 -3.738305 0.496455 4.634470 -2.429938 0.793121 1.142372 2.983979 -0.462041 0.000000 0.000000 0.000000 5.015942 -2.732575 0.835660 -2.625980 -0.934354 -1.910155 -9.461652 30.606740 -8.420306 0.000000 0.000000 0.000000 4.673444 -2.003658 -0.070615 10.799303 7.564110 13.862540 2.193292 -1.786255 4.146916 50.145200 -44.551637 -51.840692 -120.344928 -68.318817 -113.718675 0.000000 0.000000 0.000000 6.435557 -2.118228 0.641608 1.135415 1.863907 1.516414 2.981358 -0.451295 -4.020654 -4.384510 17.308913 67.711354 1.095961 49.068120 2.689436 0.000000 0.000000 0.000000 
1.722338 32.561016 -1.787998 0.000000 0.000000 0.000000 -1.880995 -36.976701 -6.315458 -33.396705 47.228812 41.631680 37.105973 1.236496 -4.565930 -18.325273 11.552112 -9.994740 -2.426447 -0.279672 0.166570 0.000000 0.000000 0.000000 -1.099736 -36.253398 -6.631376 -13.877271 -10.527543 -8.298072 26.656546 2.650378 1.417204 -5.544366 2.738195 3.281590 -2.812930 -0.243985 1.357075 0.000000 0.000000 0.000000 -1.292911 -37.090489 -7.084841 9.757217 -3.774161 0.146568 5.070605 -2.666717 0.534950 1.994085 4.574001 -0.160366 0.000000 0.000000 0.000000 5.007944 -2.827230 0.599722 -2.803407 -0.410674 -1.069965 -9.855399 32.009156 -8.029474 0.000000 0.000000 0.000000 5.084904 -1.963225 -0.195367 11.970933 9.117196 15.487066 0.683872 -4.991546 3.408297 56.550155 -43.970613 -54.105234 -137.996623 -60.547578 -131.377336 0.000000 0.000000 0.000000 6.969007 -2.128110 0.342665 1.724753 2.536049 1.607609 4.091492 -1.656008 -4.533472 -2.613838 15.281469 64.591712 0.384839 59.973255 3.520673 0.000000 0.000000 0.000000 
1.896523 32.168686 -2.152327 0.000000 0.000000 0.000000 -2.322271 -41.526088 -5.819305 -31.906317 49.238352 40.940639 37.769802 1.107791 -4.071253 -22.731201 13.592817 -7.898401 -2.317737 -0.221084 -0.299614 0.000000 0.000000 0.000000 -1.475420 -40.171990 -5.948450 -14.457849 -12.434948 -13.065872 31.973546 0.904670 0.067857 -7.401483 -1.325302 1.811320 -3.178697 -1.228062 4.920743 0.000000 0.000000 0.000000 -1.405931 -39.967340 -6.813704 9.385792 -3.500918 -0.394594 5.248935 -2.686583 0.307731 2.525114 6.046848 -0.433985 0.000000 0.000000 0.000000 4.705620 -2.779014 0.332966 -2.737558 -0.315176 0.018931 -9.005213 33.138268 -7.786134 0.000000 0.000000 0.000000 5.285531 -1.830306 -0.234071 12.826874 10.591114 15.998579 -0.544374 -6.872616 2.251899 56.513955 -42.759293 -58.875875 -138.755771 -58.258461 -131.610724 0.000000 0.000000 0.000000 7.043668 -2.004999 0.098569 2.160719 3.196272 1.774832 5.068558 -2.263881 -4.631234 1.096980 13.894546 61.362030 -0.582193 67.849187 4.330845 0.000000 0.000000 0.000000 
